<?xml version="1.0" encoding="UTF-8"?>
<svg xmlns="http://www.w3.org/2000/svg" version="1.1" viewBox="0 0 64 64">
  <defs>
    <style>
      .cls-1 {
        stroke: #000;
        stroke-miterlimit: 10;
      }
    </style>
  </defs>
  <!-- Generator: Adobe Illustrator 28.7.1, SVG Export Plug-In . SVG Version: 1.2.0 Build 142)  -->
  <g>
    <g id="cowboy">
      <path class="cls-1" d="M-33.4-50.1c0,1.2,0,2.4,0,3.6,0,1.8-.2,3.5-.5,5.2v.5c1,0,2.1-.6,2.8-1.4.9-.9,1.4-2,1.4-3.3s-.5-2.5-1.4-3.3c-.6-.6-1.4-1.1-2.3-1.3h0ZM-70.4-53.2c0-1,.1-2.4.2-3.1,0-.3.2-.6.5-.8,5.2-3.5,11.5-5.4,17.8-5.4s12.5,1.9,17.8,5.4c.3.2.5.5.5.8,0,.7.1,2,.2,3.1,2.1-.6,3.9-1.5,5.1-2.5,1.4-1.2,2.1-2.6,2.1-4.5,0-3.9-3.2-8.6-8.4-12.3-4.6-3.2-10.6-5.5-17.3-5.5s-12.7,2.3-17.3,5.5c-5.1,3.6-8.4,8.4-8.4,12.3s.8,3.3,2.1,4.5c1.2,1.1,3,1.9,5.1,2.5h0ZM-35.6-53.6v-2c-4.9-3.1-10.7-4.9-16.4-4.9s-11.5,1.7-16.3,4.9v2c2.1-1.1,4.5-2,7.1-2.6,2.9-.7,6-1.2,9.2-1.2s6.3.4,9.2,1.2c2.5.6,4.9,1.5,7.2,2.6h0ZM-35.4-50.3c-2.3,1.1-4.7,2.1-7.3,2.7-2.9.8-6,1.2-9.2,1.2s-6.3-.4-9.2-1.2c-2.6-.7-5.1-1.6-7.3-2.7,0,1.3,0,2.5,0,3.7,0,1.7.2,3.4.4,4.9.7,4.2,2.9,8.2,5.9,11.1,2.9,2.8,6.5,4.6,10.2,4.6s7.3-1.8,10.2-4.6c3-2.9,5.3-6.9,5.9-11.1.2-1.5.4-3.2.4-4.9,0-1.2,0-2.5,0-3.7h0ZM-72.2-51.7c-1.8-.7-3.4-1.5-4.6-2.5-1.8-1.5-2.8-3.5-2.8-6,0-4.5,3.6-9.9,9.2-13.9,4.9-3.4,11.3-5.9,18.4-5.9s13.6,2.4,18.4,5.9c5.7,4,9.2,9.4,9.2,13.9s-1,4.4-2.8,6c-1.2,1-2.8,1.9-4.6,2.5.8.3,1.5.8,2.1,1.4,1.2,1.2,1.9,2.9,1.9,4.7s-.8,3.5-2,4.7c-1.2,1.2-2.9,2-4.7,2h0c-1.1,3.7-3.2,7.1-5.9,9.7-3.3,3.2-7.4,5.2-11.6,5.2s-8.3-2-11.6-5.2c-2.7-2.6-4.8-6-5.9-9.7h0c-1.9,0-3.5-.7-4.7-2-1.2-1.2-2-2.9-2-4.7s.7-3.5,1.9-4.7c.6-.6,1.3-1.1,2.1-1.4h0ZM-70-40.9v-.5c-.3-1.6-.5-3.3-.6-5.2,0-1.2,0-2.4,0-3.6-.9.2-1.7.7-2.3,1.3-.8.8-1.4,2-1.4,3.3s.5,2.5,1.4,3.3c.8.8,1.8,1.3,2.9,1.4h0ZM-36.7-51.9c-2.1-1-4.3-1.8-6.6-2.4-2.8-.7-5.7-1.1-8.7-1.1s-6,.4-8.7,1.1c-2.3.6-4.5,1.4-6.6,2.4,2.1,1,4.3,1.8,6.6,2.4,2.8.7,5.7,1.1,8.8,1.1s6-.4,8.8-1.1c2.3-.6,4.5-1.4,6.6-2.4h0ZM51.5-72c6.2,6.2,9.1,15,7.8,23.7-.2,1.4-.5,2.8-.9,4.1-.2.5-.7.8-1.3.7-.5-.2-1-.4-1.5-.5-.6,3.1-3.3,5.4-6.4,5.4-1.1,3.6-3.2,7-5.8,9.6-7,6.7-15.7,6.7-22.6,0-2.7-2.6-4.8-5.9-5.8-9.6-3.2,0-5.9-2.3-6.4-5.4-.5.2-1,.3-1.5.5-.5.2-1.1,0-1.3-.6h0c-.4-1.4-.7-2.7-.9-4.1-1.3-8.7,1.5-17.5,7.8-23.7,10.7-10.7,28.3-10.7,39.1,0h0ZM37.9-68.2h8.4c2.2,0,4,1.8,4,4v4.9c2.3.5,4.6,1.1,6.8,1.8-1-5.1-3.5-9.6-7-13.1-9.9-9.9-26.3-9.9-36.2,0-3.5,3.5-6,8-7,13.1,2.2-.7,4.5-1.3,6.8-1.8v-4.9c0-2.2,1.8-4,4-4h8.4c2.2,0,4,1.8,4,4v3.1c1.3,0,2.5,0,3.8,0v-3.1c0-2.2,1.8-4,4-4h0ZM57.5-55.2c-2.4-.8-4.7-1.5-7.2-2v1.4c0,2.2-1.8,4-4,4h-8.4c-2.2,0-4-1.8-4-4v-3.3c-1.3,0-2.5,0-3.8,0v3.3c0,2.2-1.8,4-4,4h-8.4c-2.2,0-4-1.8-4-4v-1.4c-2.4.5-4.8,1.2-7.2,2-.2,2.2-.2,4.5.1,6.7.1,1,.3,1.9.6,2.8,15-5,34.5-5,49.5,0,.2-.9.4-1.8.6-2.8.3-2.2.4-4.5.1-6.7h0ZM46.3-66.2h-8.4c-1.1,0-2,.9-2,2v8.4c0,1.1.9,2,2,2h8.4c1.1,0,2-.9,2-2v-8.4c0-1.1-.9-2-2-2h0ZM26.1-66.2h-8.4c-1.1,0-2,.9-2,2v8.4c0,1.1.9,2,2,2h8.4c1.1,0,2-.9,2-2v-8.4c0-1.1-.9-2-2-2h0ZM53.6-44.6c-1.1-.3-2.3-.6-3.5-.9,0,1.5-.2,3-.4,4.6v.3c2-.2,3.7-1.9,3.9-4h0ZM14.4-40.7v-.3c-.3-1.5-.4-3-.5-4.6-1.2.3-2.4.6-3.5.9.3,2.1,1.9,3.7,4,4h0ZM48.2-46c-10.3-2.1-22-2.1-32.3,0,0,1.5.2,3.1.4,4.7.7,4.1,2.8,8,5.8,10.8,6.2,6,13.7,6,19.9,0,2.9-2.8,5.1-6.7,5.8-10.8.3-1.5.4-3.1.4-4.7h0ZM136.6-57.2c.1,1.1.1,2.3.2,3.5,1.5.2,2.9,1,4,2,2.7,2.7,2.7,7.2,0,9.9-1.3,1.3-3,2.1-5,2.1h0c-1.2,3.9-3.4,7.5-6.3,10.3-7.5,7.2-16.9,7.2-24.4,0-2.9-2.8-5.1-6.4-6.3-10.3h0c-1.9,0-3.7-.8-5-2.1-2.7-2.7-2.7-7.2,0-9.9,1-1.1,2.4-1.8,4-2,0-1,0-2.1.1-3.1-3.9-.2-6.1-1.2-7.3-2.7-1.4-1.6-1.4-3.6-1.1-5.2.7-3.8,6.1-8.1,13.8-11.1,6.6-2.6,15.1-4.4,23.7-4.2,4.8.1,8.3,1,10.8,2.5,2.4,1.4,3.9,3.2,4.6,5.3.7,2.1.6,4.4-.1,6.7-.9,2.9-2.9,5.8-5.6,8.4h0ZM136.8-51.6c0,1,0,2.1,0,3.1,0,2.3-.2,4.5-.6,6.8,1.2-.1,2.3-.6,3.1-1.4,1.9-1.9,2-5.1,0-7.1-.7-.7-1.5-1.2-2.5-1.4h0ZM98.2-41.7c-.4-2.3-.6-4.5-.6-6.8,0-1,0-2.1,0-3.1-1,.2-1.8.7-2.5,1.4-1.9,2-1.9,5.1,0,7.1.8.8,1.9,1.3,3.1,1.5h0ZM99.8-56.8c-.2,2.6-.2,5.7-.2,8.2.2,7,1.5,12.6,6.8,17.7,6.7,6.5,14.9,6.5,21.6,0,5.3-5.1,6.6-10.7,6.8-17.7,0-2.6,0-5.6-.2-8.2h-34.8ZM136.7-75.8c-2.2-1.3-5.5-2.1-9.9-2.2-8.4-.2-16.6,1.5-23,4.1-7.1,2.8-11.9,6.5-12.5,9.6-.2,1.1-.2,2.5.7,3.5.9,1.1,2.9,2,6.7,2h36.7c2.4-2.3,4.1-4.9,4.9-7.4.6-1.9.7-3.8.2-5.4-.5-1.6-1.7-3.1-3.6-4.2h0ZM218.7-50.6c-.6.3-1.2.6-1.7.8,1.3.2,2.4.8,3.3,1.7,1.1,1.1,1.8,2.7,1.8,4.3s-.7,3.2-1.8,4.4h0c-1.1,1.1-2.6,1.8-4.3,1.8-1,3.3-2.9,6.4-5.4,8.8-3,2.9-6.7,4.7-10.6,4.7s-7.6-1.8-10.6-4.7c-2.4-2.4-4.4-5.4-5.4-8.8-1.7,0-3.2-.7-4.3-1.8h0c-1.1-1.1-1.8-2.7-1.8-4.4s.7-3.2,1.8-4.3c.9-.9,2-1.5,3.3-1.7-.6-.3-1.2-.5-1.7-.8-.4-.1-.6-.5-.6-.9h0v-5.3c0-5.3,2.2-10.2,5.7-13.7h0c2.2-2.2,4.9-3.8,7.9-4.8.2-1.3.9-2.4,1.8-3.2,1.1-1,2.5-1.6,4-1.6s3,.6,4,1.6c.9.8,1.5,2,1.8,3.2,3,.9,5.7,2.6,7.9,4.8h0c3.5,3.6,5.6,8.4,5.6,13.7v5.3c0,.4-.3.8-.6.9h0ZM217-47.7c0,.9,0,1.8,0,2.7,0,1.8-.2,3.5-.4,5.1v.3c.9-.1,1.7-.5,2.3-1.2h0s0,0,0,0c.7-.7,1.2-1.8,1.2-2.9s-.5-2.2-1.2-2.9c-.5-.5-1.2-.9-1.9-1.1h0ZM183.6-39.5v-.3c-.3-1.6-.4-3.3-.5-5.1,0-.9,0-1.8,0-2.7-.7.2-1.4.6-1.9,1.1-.7.8-1.2,1.8-1.2,2.9s.5,2.2,1.2,2.9h0s0,0,0,0c.6.6,1.5,1.1,2.4,1.2h0ZM214.9-48.8c-5,2-9.9,3-14.9,3s-10-1-15-3c0,1.3,0,2.6,0,3.8,0,1.7.2,3.4.4,4.8.6,3.8,2.6,7.4,5.4,10,2.6,2.5,5.9,4.2,9.2,4.2s6.5-1.6,9.2-4.2c2.7-2.6,4.7-6.2,5.4-10,.2-1.5.4-3.1.4-4.8,0-1.3,0-2.5,0-3.8h0ZM186.4-50.5c4.6,1.8,9.1,2.6,13.7,2.6s9.1-.9,13.6-2.6h-27.3ZM196.5-75.8c1.1-.2,2.3-.3,3.5-.3s2.4.1,3.5.3c-.2-.4-.5-.8-.9-1.2-.7-.7-1.6-1-2.7-1s-2,.4-2.7,1c-.4.3-.7.7-.9,1.2h0ZM182.7-52.5h34.7v-4.2c0-4.8-1.9-9.1-5-12.2h0c-3.1-3.2-7.5-5.1-12.3-5.1s-9.1,1.9-12.3,5.1h0c-3.1,3.1-5.1,7.5-5.1,12.3v4.2h0ZM289.5-74.5v13.1c0,1.5-.6,2.9-1.6,3.9-1,1-2.4,1.6-3.9,1.6s-2.9-.6-3.9-1.6c-1-1-1.6-2.4-1.6-3.9v-13.1c0-.2,0-.4,0-.6-3.8,1-6.6,3-8.6,5.6-2.7,3.5-3.8,8.2-3.8,12.7h0c0,.5-.4,1-1,1-.6,0-1.1.2-1.6.5h0s0,0,0,0c-.4.3-.7.7-.9,1.3h0c-.2.8-.1,1.5.2,2.1.3.5.7,1,1.3,1.2,6.6-2.5,13.2-3.7,19.8-3.7,6.6,0,13.2,1.2,19.9,3.7.6-.3,1-.7,1.3-1.2.3-.6.4-1.3.2-2.1h0c-.2-.5-.5-1-.9-1.3h0c-.4-.4-1-.5-1.5-.6h0c-.6,0-1-.4-1-1,0-4.5-1.1-9.2-3.8-12.7-1.9-2.6-4.7-4.6-8.6-5.6,0,.2,0,.4,0,.6h0ZM269-36.7c-1.6,0-3-.7-4-1.7-1.1-1.1-1.7-2.5-1.7-4.2s.7-3.1,1.7-4.1c.8-.8,1.9-1.4,3.1-1.6v-.3s-3.9,0-3.9,0c-.1,0-.3,0-.4,0-1.2-.4-2.1-1.2-2.6-2.3-.5-1.1-.7-2.3-.3-3.6h0c.3-1,.9-1.8,1.6-2.3h0c.5-.4,1.1-.7,1.8-.8.1-4.6,1.4-9.4,4.1-13,2.4-3.2,6-5.6,10.9-6.6.2-.4.5-.8.8-1.1,1-1,2.4-1.6,3.9-1.6s2.9.6,3.9,1.6c.3.3.6.7.8,1.1,5,.9,8.5,3.4,10.9,6.6,2.8,3.7,4,8.4,4.1,13,.6.1,1.2.4,1.8.8h0c.7.6,1.3,1.4,1.6,2.3h0c.4,1.2.2,2.5-.3,3.6-.6,1.1-1.5,1.9-2.8,2.3,0,0-.2,0-.3,0h-3.9v.3c1.2.2,2.3.8,3.2,1.6,1.1,1.1,1.7,2.5,1.7,4.1s-.7,3.1-1.7,4.2c-1,1-2.5,1.7-4,1.7-1,3.1-2.8,6-5.1,8.2-2.8,2.7-6.4,4.5-10,4.5s-7.2-1.7-10-4.5c-2.3-2.2-4.1-5.1-5.1-8.2h0ZM268-46.2c-.6.2-1.2.5-1.7,1-.7.7-1.1,1.7-1.1,2.7s.4,2,1.1,2.7c.6.6,1.3.9,2.1,1.1v-.2c-.3-1.6-.4-3.3-.5-5,0-.7,0-1.5,0-2.3h0ZM299.5-38.7c.8-.1,1.6-.5,2.1-1.1.7-.7,1.1-1.7,1.1-2.7s-.4-2-1.1-2.7c-.5-.5-1-.8-1.7-1,0,.8,0,1.5,0,2.2,0,1.8-.2,3.5-.4,5.1v.2h0ZM270.6-50.6h26.7c-4.5-1.2-8.9-1.7-13.4-1.7-4.4,0-8.9.6-13.3,1.7h0ZM298-44c0-1.3,0-3.1,0-4.6h-27.9c0,1.5,0,3.2,0,4.6,0,1.7.1,3.3.4,4.8.6,3.5,2.5,6.9,5,9.4,2.5,2.4,5.5,3.9,8.6,3.9s6.1-1.5,8.6-3.9c2.6-2.5,4.4-5.8,5-9.4.2-1.5.4-3.1.4-4.8h0ZM287.5-61.4v-13.1c0-1-.4-1.8-1-2.5-.6-.6-1.5-1-2.5-1s-1.8.4-2.5,1c-.6.6-1,1.5-1,2.5v13.1c0,1,.4,1.8,1,2.5.6.6,1.5,1,2.5,1s1.8-.4,2.5-1c.6-.6,1-1.5,1-2.5h0ZM-80,32.2h0c0-1.8,1.2-3.4,2.9-4.5,1.5-1,3.4-1.7,5.3-1.8.5-4,2.3-7.6,4.8-10.5,2.6-2.9,6.2-5.1,10.3-6,.4-.8,1-1.5,1.7-2,.9-.6,1.9-1,3-1s2.2.4,3,1c.7.5,1.3,1.2,1.7,2,4.1.9,7.6,3.1,10.3,6,2.6,2.9,4.3,6.5,4.8,10.5,1.9.2,3.8.8,5.3,1.8,1.7,1.1,2.8,2.7,2.8,4.5s-.4,1-1,1h-10.9,0c1.2.3,2.4.9,3.2,1.8,1.1,1.1,1.7,2.5,1.7,4.1s-.7,3.1-1.7,4.2h0c-1.1,1.1-2.5,1.7-4.1,1.7h0c-1,3.1-2.8,6-5.1,8.2-2.8,2.7-6.4,4.5-10.1,4.5s-7.2-1.8-10.1-4.5c-2.3-2.2-4.1-5.1-5.1-8.2-1.6,0-3.1-.7-4.1-1.7h0c-1.1-1.1-1.7-2.5-1.7-4.2s.7-3.1,1.7-4.1c.8-.9,2-1.4,3.2-1.7h0c0-.1-10.9-.1-10.9-.1-.5,0-1-.4-1-1h0ZM-37.8,33.1h-28.4c0,1.4,0,2.9,0,4.3,0,1.7.2,3.3.4,4.8.6,3.6,2.5,7,5.1,9.5,2.5,2.4,5.6,4,8.7,4s6.2-1.6,8.7-4c2.6-2.5,4.5-5.9,5.1-9.5.2-1.5.4-3.1.4-4.8,0-1.4,0-2.8,0-4.3h0ZM-35.8,35.2c0,.7,0,1.5,0,2.2h0c0,1.8-.2,3.5-.4,5.1v.5c.8-.1,1.6-.5,2.2-1.1h0s0,0,0,0c.7-.7,1.2-1.7,1.2-2.8s-.4-2.1-1.1-2.8c-.5-.5-1.1-.9-1.8-1h0ZM-67.6,43v-.5c-.3-1.6-.5-3.3-.5-5.1,0-.7,0-1.5,0-2.2-.7.2-1.3.5-1.8,1-.7.7-1.1,1.7-1.1,2.8s.4,2.1,1.1,2.8h0s0,0,0,0c.6.6,1.4,1,2.3,1.1h0ZM-76.1,29.3c-.8.6-1.5,1.2-1.8,1.9H-26.1c-.3-.7-1-1.4-1.8-1.9-1.4-.9-3.3-1.5-5.1-1.5h0c-.5,0-.9-.4-.9-.9-.4-3.9-2-7.4-4.5-10.2-2.5-2.8-5.8-4.7-9.7-5.5-.3,0-.7-.3-.8-.6-.2-.7-.7-1.2-1.2-1.6-.5-.4-1.2-.6-1.9-.6s-1.4.2-1.9.6c-.6.4-1,1-1.2,1.6h0c-.1.3-.4.5-.7.6-3.9.8-7.2,2.8-9.7,5.6-2.5,2.7-4.1,6.2-4.4,10.1,0,.5-.4,1-1,1-1.8,0-3.7.6-5.1,1.5h0ZM44.6,33v.5c.9.2,1.8.7,2.4,1.3.8.9,1.4,2,1.4,3.3h0c0,1.3-.5,2.5-1.4,3.4h0c-.8.8-1.9,1.3-3.1,1.4-.8,2.4-2.2,4.6-4,6.3-2.2,2.2-5,3.5-7.9,3.5s-5.7-1.4-7.9-3.5h0c-1.8-1.8-3.2-4-3.9-6.3-1.2,0-2.3-.6-3.1-1.4-.9-.9-1.4-2.1-1.4-3.4s.5-2.5,1.4-3.3c.6-.6,1.5-1.1,2.4-1.3v-.5c-3.4-.1-7-1-9.9-2.9-3.2-2.2-5.4-5.9-5.4-11.6h0c0-.6.4-1,1-1s1,.5,1,1h0s0,0,0,0h0c0,.4,0,.8.2,1.2.5,2.1,2.2,4,4.4,5.4,2.3,1.4,5,2.3,7.5,2.2h.3c.2-2.3.5-5.2,1.2-8,.8-3.2,2.1-6.1,4.3-7.7h0c1.5-1,3.9-.6,5.9-.3h0s0,0,0,0c.9.1,1.6.3,2.1.2h.1c.4,0,1.2-.1,2.1-.2h0c2-.3,4.5-.7,6,.3h0c2.2,1.5,3.5,4.5,4.3,7.7.7,2.7,1,5.6,1.2,8h.3c2.5,0,5.3-.8,7.5-2.2,2.2-1.4,3.9-3.3,4.4-5.4h0c0-.4.1-.7.2-1.1h0c0-.1,0-.1,0-.1h0c0-.6.5-1,1-1s1,.5,1,1h0c0,5.7-2.2,9.4-5.4,11.6-2.9,2-6.5,2.8-9.9,2.9h0ZM20.3,27.1c1.3-.3,2.6-.9,3.8-1.5,2.4-1,4.8-2.1,7.8-2.1s5.5,1.1,7.8,2.1c1.3.6,2.5,1.1,3.8,1.5-.2-2.2-.5-4.8-1.1-7.2-.7-2.8-1.8-5.3-3.5-6.6h0c-.8-.6-2.9-.2-4.6,0h0c-.9.2-1.8.3-2.4.3-.6,0-1.5-.1-2.4-.3-1.7-.3-3.7-.6-4.6,0h0c-1.8,1.2-2.9,3.8-3.5,6.6-.6,2.4-.9,5-1.1,7.2h0ZM32,11.7h0,0ZM21.4,33.1c0,1.2,0,2.5,0,3.7,0,1.4.1,2.8.3,4,.4,2.7,1.9,5.3,3.8,7.1h0c1.9,1.8,4.2,3,6.5,3s4.7-1.2,6.5-3c2-1.9,3.4-4.5,3.8-7.2.2-1.2.3-2.6.3-4,0-1.3,0-2.5,0-3.7h-21.3ZM20.4,31.1h23.1c3.4,0,7.1-.7,9.8-2.6,1.1-.7,2-1.7,2.8-2.9-.5.5-1.1.9-1.7,1.3-2.6,1.6-5.7,2.6-8.6,2.6-.9,0-1.7-.1-2.5-.3-1.5-.4-2.9-1-4.3-1.6-2.2-1-4.4-1.9-7-1.9s-4.9,1-7,1.9c-1.4.6-2.8,1.2-4.3,1.6-.8.2-1.7.3-2.5.3-2.9,0-6-.9-8.6-2.6-.6-.4-1.2-.8-1.7-1.3.7,1.2,1.7,2.1,2.8,2.9,2.8,1.9,6.4,2.6,9.8,2.6h0ZM44.7,35.7c0,.4,0,.8,0,1.1,0,1.4-.1,2.9-.3,4.1.5-.1.9-.4,1.2-.7h0c.5-.5.8-1.2.8-2h0c0-.8-.3-1.5-.8-1.9-.3-.3-.6-.5-.9-.6h0ZM19.6,40.9c-.2-1.2-.3-2.7-.3-4.1,0-.4,0-.8,0-1.2-.3.1-.6.4-.9.6-.5.5-.8,1.2-.8,1.9s.3,1.5.8,2c.3.3.8.6,1.2.7h0ZM100.4,25.3h31.2c0-.6-.2-1.1-.3-1.7-.7-4.3-1.5-9.2-4-11.6-1.9-1.8-6.6-2.7-11.3-2.7s-9.4.9-11.3,2.7c-2.5,2.3-3.3,7.3-4,11.6,0,.6-.2,1.2-.3,1.7h0ZM131.6,34.4c0,1.2,0,2.3,0,3.5,0,1.3-.1,2.5-.3,3.7.7-.1,1.4-.5,1.9-1h0c.7-.7,1.1-1.6,1.1-2.6s-.4-2-1.1-2.6c-.4-.4-.9-.7-1.5-.9h-.1ZM130.8,43.7c-.9,3.3-2.7,6.4-5.1,8.7-2.7,2.6-6.2,4.4-9.7,4.4s-7-1.7-9.7-4.4c-2.4-2.3-4.3-5.4-5.1-8.7-1.4,0-2.8-.7-3.7-1.7-1-1-1.7-2.5-1.7-4.1s.5-2.6,1.2-3.5h-7.9c-.6,0-1-.4-1-1s.2-.7.4-.8l9.9-6.9c.1-.8.3-1.6.4-2.5.8-4.6,1.6-9.9,4.6-12.7,2.3-2.1,7.5-3.2,12.7-3.2s10.4,1.1,12.7,3.2c3,2.8,3.8,8.1,4.6,12.7.1.8.3,1.7.4,2.5l9.9,6.9c.5.3.6.9.3,1.4-.2.3-.5.4-.8.4h-8c.8,1,1.2,2.2,1.2,3.5s-.6,3-1.7,4.1h0s0,0,0,0c-1,1-2.3,1.6-3.7,1.7h0ZM102.4,34.4c0,1.2,0,2.3,0,3.4,0,1.4.2,2.8.4,4,.6,3.4,2.4,6.7,4.9,9.1,2.4,2.3,5.4,3.8,8.3,3.8s5.9-1.5,8.3-3.8c2.5-2.4,4.3-5.7,4.9-9.1.2-1.2.3-2.6.4-4,0-1.1,0-2.3,0-3.4h-27.2ZM100.7,41.6c-.2-1.2-.3-2.4-.3-3.7,0-1.1,0-2.3,0-3.5h0c-.6.2-1.1.5-1.5.9-.7.7-1.1,1.6-1.1,2.6s.4,2,1.1,2.6c.5.5,1.2.9,1.9,1h0ZM132.5,27.3h-33l-7.3,5.1h47.6l-7.3-5.1h0ZM88.4,32.5h0s0,0,0,0h0ZM116,13.6c.6,0,1.2.3,1.6.7h0c.4.4.7,1,.7,1.6s-.3,1.2-.7,1.6h0c-.4.4-1,.7-1.6.7s-1.2-.3-1.6-.7h0c-.4-.4-.7-1-.7-1.6s.3-1.2.7-1.6h0c.4-.4,1-.7,1.6-.7h0ZM116,15.5c-.2,0-.4.2-.4.4s.2.4.4.4.4-.2.4-.4-.2-.4-.4-.4h0ZM123.9,13.6c.6,0,1.2.3,1.6.7h0c.4.4.7,1,.7,1.6s-.3,1.2-.7,1.6h0c-.4.4-1,.7-1.6.7s-1.2-.3-1.6-.7h0c-.4-.4-.7-1-.7-1.6s.3-1.2.7-1.6h0c.4-.4,1-.7,1.6-.7h0ZM123.9,15.5c-.2,0-.4.2-.4.4s.2.4.4.4.4-.2.4-.4-.2-.4-.4-.4h0ZM108.1,13.6c.6,0,1.2.3,1.6.7h0c.4.4.7,1,.7,1.6s-.3,1.2-.7,1.6h0c-.4.4-1,.7-1.6.7s-1.2-.3-1.6-.7h0c-.4-.4-.7-1-.7-1.6s.3-1.2.7-1.6h0c.4-.4,1-.7,1.6-.7h0ZM108.1,15.5c-.2,0-.4.2-.4.4s.2.4.4.4.4-.2.4-.4-.2-.4-.4-.4h0ZM204.7,6.7c4.9.9,8.4,3.3,10.8,6.4,2.8,3.7,4.1,8.5,4.3,13.2.6.1,1.2.4,1.8.8h0c.7.6,1.3,1.4,1.6,2.3h0s0,0,0,0c.4,1.2.2,2.5-.3,3.6-.6,1.1-1.5,1.9-2.8,2.3-.1,0-.2,0-.3,0h-3.9c1.2.2,2.3.8,3.2,1.6,1.1,1.1,1.7,2.5,1.7,4.1s-.7,3.1-1.7,4.2c-1,1-2.4,1.7-4,1.7-.9,3.2-2.8,6.2-5.2,8.5-2.8,2.7-6.4,4.5-10,4.5s-7.2-1.7-10-4.5c-2.4-2.3-4.2-5.3-5.2-8.5-1.5,0-2.9-.7-4-1.7-1.1-1.1-1.7-2.5-1.7-4.2s.7-3.1,1.7-4.1c.8-.8,1.9-1.4,3.2-1.6h0s-3.9,0-3.9,0c-.1,0-.2,0-.3,0-1.2-.4-2.2-1.3-2.7-2.3-.6-1.1-.7-2.3-.3-3.6h0c.3-1,.9-1.8,1.6-2.3h0c.5-.4,1.1-.7,1.8-.8.1-4.7,1.4-9.5,4.2-13.2,2.4-3.1,5.9-5.5,10.8-6.4h0c0-.8.3-1.4.8-1.9.5-.5,1.2-.8,1.9-.8h4.1c.7,0,1.4.3,1.9.8h0c.5.5.8,1.2.8,1.9h0s0,0,0,0ZM216,37.5c0,2.5,0,4.9-.4,7.5.8-.1,1.5-.5,2.1-1.1.7-.7,1.1-1.7,1.1-2.7s-.4-2-1.1-2.7c-.5-.5-1.1-.8-1.7-1h0ZM184.4,45c-.4-2.6-.4-5-.4-7.5-.7.2-1.2.5-1.7,1-.7.7-1.1,1.6-1.1,2.7s.4,2,1.1,2.7c.5.5,1.3.9,2.1,1.1h0ZM213.9,35.4h-27.8v.9c0,2.8-.1,5.6.3,8.4.6,3.5,2.5,6.9,5,9.4,2.5,2.4,5.5,3.9,8.6,3.9s6.1-1.5,8.6-3.9c2.6-2.5,4.4-5.8,5-9.4.5-2.8.4-5.6.3-8.4v-.9h0ZM213.3,33.4c-4.5-1.2-8.9-1.7-13.4-1.7-4.4,0-8.9.6-13.3,1.7h26.7ZM180.2,33.4c6.6-2.5,13.2-3.7,19.8-3.7,6.6,0,13.2,1.2,19.9,3.7.6-.3,1.1-.7,1.3-1.2.3-.6.4-1.3.2-2.1h0c-.2-.5-.5-1-.9-1.3h0c-.4-.3-.9-.5-1.5-.6h0c-.6,0-1-.4-1-1,0-4.6-1.1-9.3-3.8-12.8-2.1-2.7-5.1-4.7-9.2-5.6v7.9c0,0,.2.2.3.3h0c1.3,1.3,2.1,3.1,2.1,5s-.8,3.7-2.1,5h0c-1.3,1.3-3.1,2.1-5,2.1s-3.8-.8-5-2.1h0c-1.3-1.3-2.1-3.1-2.1-5s.8-3.7,2.1-5h0c0,0,.2-.2.3-.3v-7.9c-4.2.9-7.2,2.9-9.2,5.6-2.7,3.6-3.8,8.3-3.8,12.8h0c0,.5-.4,1-1,1-.6,0-1.1.2-1.6.5h0c-.4.3-.7.7-.9,1.3h0c-.2.8-.1,1.5.2,2.1.3.5.7,1,1.3,1.2h0ZM200,14.8c1,0,1.9.2,2.7.5V6.7c0-.2,0-.4-.2-.5h0c-.1-.1-.3-.2-.5-.2h-4.1c-.2,0-.4,0-.5.2-.1.1-.2.3-.2.5v8.7c.8-.4,1.8-.5,2.7-.5h0ZM203.6,18.3c-.9-.9-2.2-1.5-3.6-1.5s-2.7.6-3.6,1.5h0c-.9.9-1.5,2.2-1.5,3.6s.6,2.7,1.5,3.6h0c.9.9,2.2,1.5,3.6,1.5s2.7-.6,3.6-1.5h0c.9-.9,1.5-2.2,1.5-3.6s-.6-2.7-1.5-3.6h0ZM297.5,16.6l-1.5-2c0,0-.2,0-.3.1h0c-.7.5-2.7,2.6-3.8,4.5-.6.9-.9,1.7-.7,2,.2.3,1.1.2,2.2,0,2.2-.5,4.7-1.8,5.4-2.3h0c0,0,.2-.2.2-.2l-1.5-2h0ZM297.5,13.3l1.6,2.1h0l1.6,2.1h0c.4.5.4,1.1.2,1.7h0c-.2.5-.5.9-.9,1.3h0c-.8.6-3.7,2.1-6.1,2.7-1.8.4-3.4.4-4.2-.7-.8-1.1-.3-2.7.6-4.2,1.3-2.1,3.5-4.5,4.4-5.1h0c.5-.3,1-.5,1.5-.5.6,0,1.2.2,1.5.7h0ZM268.9,15.4l1.6-2.1h0c.4-.5.9-.7,1.5-.7.5,0,1,.2,1.5.5h0c.8.6,3.1,2.9,4.4,5.1.9,1.6,1.4,3.2.6,4.2-.8,1.1-2.4,1.1-4.2.7-2.4-.6-5.3-2.1-6.1-2.7h0c-.5-.3-.8-.8-.9-1.3h0c-.2-.6-.1-1.2.2-1.7h0s1.6-2.1,1.6-2.1h0ZM272,14.6l-1.5,2h0s-1.5,2-1.5,2c0,0,.1.2.2.2h0c.7.5,3.3,1.8,5.4,2.3,1.1.3,1.9.4,2.1,0,.2-.3-.1-1.1-.7-2-1.1-1.9-3.1-4-3.8-4.5h0c-.1,0-.2-.1-.3-.1h0ZM284,9.8h-2.5c0,0,0,.2,0,.3,0,.9.1,4.9,1,7.7.4,1.2.9,2.1,1.5,2.1.6,0,1.1-.9,1.5-2.1h0c.9-2.7,1-6.7,1-7.7s0-.2,0-.3h-2.5ZM281.4,7.8h5.3c.6,0,1.1.3,1.5.8h0c.3.4.5.9.5,1.5,0,1-.1,5.3-1.1,8.3h0c-.7,2-1.7,3.5-3.4,3.5h0c-1.7,0-2.8-1.5-3.4-3.5-1-3-1.1-7.3-1.1-8.3s.2-1.1.5-1.5h0c.4-.5.9-.8,1.5-.8h0ZM284,28.4h-.1c-6.2,0-12.4.5-18.6,1.5,6.1,1.7,12.3,2.5,18.4,2.5h.6c6.2,0,12.3-.8,18.4-2.5-6.2-1-12.4-1.5-18.6-1.5h-.1ZM302.9,31.9c1.5.2,2.8.9,3.8,1.9,1.2,1.2,2,2.9,2,4.8s-.8,3.6-2,4.8h0c-1.2,1.2-2.9,2-4.8,2s-.2,0-.2,0c-1.2,3.5-3.3,6.7-5.9,9.3-3.3,3.2-7.5,5.3-11.8,5.3s-8.5-2.1-11.8-5.3c-2.6-2.5-4.7-5.8-5.9-9.3,0,0-.2,0-.2,0-1.9,0-3.6-.8-4.8-2h0c-1.2-1.3-1.9-3-1.9-4.8s.8-3.6,2-4.8c1-1,2.3-1.7,3.8-1.9h0c-1.6-.4-3-.9-4.5-1.4-.3-.1-.5-.4-.6-.7,0,0,0-.2,0-.3,0-7.3,2.4-13.8,6.7-18.5,4.1-4.4,10-7.1,17.3-7.1h0c7.3,0,13.2,2.7,17.3,7.1,4.3,4.6,6.7,11.2,6.7,18.5,0,0,0,.2,0,.3,0,.3-.3.6-.6.7-1.4.5-2.9,1-4.5,1.4h0s0,0,0,0ZM302.2,43.5c1.2,0,2.3-.6,3.1-1.4h0c.9-.9,1.4-2.1,1.4-3.4s-.5-2.5-1.4-3.4c-.6-.6-1.4-1.1-2.4-1.3,0,1,0,2.1,0,3.1,0,1.8-.2,3.6-.5,5.2,0,.4-.1.8-.2,1.2h0ZM265,33.9c-.9.2-1.7.7-2.4,1.3-.9.9-1.4,2.1-1.4,3.4s.5,2.5,1.4,3.4h0c.8.8,1.9,1.4,3.1,1.4,0-.4-.2-.8-.2-1.2-.3-1.6-.4-3.4-.5-5.2,0-1,0-2,0-3.1h0ZM267,32.4c0,1.5,0,3.1,0,4.6h0c0,1.8.2,3.5.5,5,.7,4.3,3,8.3,6.1,11.3,3,2.9,6.7,4.7,10.4,4.7s7.4-1.8,10.4-4.7c3.1-3,5.4-7.1,6.1-11.3.3-1.5.4-3.2.5-5,0-1.5,0-3,0-4.5-5.5,1.3-11.5,2-16.7,2h-.6c-5.2,0-11.2-.7-16.7-2h0ZM284,6h0c-6.8,0-12.1,2.4-15.8,6.4-3.8,4-5.9,9.6-6.1,16,7.2-1.3,14.5-2,21.9-2h.3c7.3,0,14.6.7,21.9,2-.2-6.3-2.4-12-6.1-16-3.7-4-9.1-6.4-15.8-6.4h0Z"/>
    </g>
  </g>
</svg>